
      <svg data-logo="logo" xmlns="http://www.w3.org/2000/svg" viewBox="0 0 308 43">
        <g id="logogram" transform="translate(0, 1) rotate(0) "><path d="M39.1077 32.8531C36.2133 38.0618 30.3201 40.54 24.3612 40.54H0.452637C25.3415 37.4289 42.6749 24.9844 44.8971 7.65109C47.1193 24.9844 64.4526 37.4289 89.3415 40.54H65.433C59.4741 40.54 53.5808 38.0618 50.6864 32.8531C47.5536 27.2155 45.5577 20.8363 44.8971 13.8733C44.2365 20.8363 42.2405 27.2155 39.1077 32.8531Z" fill="#064E3B"/><path d="M25.4349 31.0122C24.0388 31.7983 22.5701 32.5366 21.0324 33.2243C20.1589 30.2069 19.8374 27.0411 20.0938 23.8875C20.4329 19.7155 21.7727 15.6934 23.9946 12.1776C26.2165 8.66176 29.2518 5.76059 32.8317 3.73116C36.4116 1.70174 40.4257 0.606653 44.5182 0.542929C48.6108 0.479195 52.6555 1.44879 56.2941 3.36581C59.9328 5.28282 63.0531 8.08807 65.3785 11.5331C67.704 14.9782 69.1629 18.9567 69.6261 23.1162C70.0049 26.5184 69.708 29.9559 68.7618 33.2243C67.224 32.5366 65.7554 31.7982 64.3592 31.0122C64.9478 28.6226 65.1128 26.1368 64.8386 23.6738C64.4651 20.3196 63.2885 17.1114 61.4133 14.3333C59.5381 11.5553 57.0219 9.29305 54.0877 7.74718C51.1534 6.20128 47.8917 5.41942 44.5916 5.4708C41.2913 5.52219 38.0544 6.40527 35.1677 8.04176C32.2808 9.67829 29.8331 12.0178 28.0413 14.853C26.2496 17.6882 25.1692 20.9315 24.8957 24.2959C24.7119 26.5572 24.8965 28.8264 25.4349 31.0122Z" fill="#6EE7B7"/></g>
        <g id="logotype" transform="translate(96, 9)"><path fill="#10b981" d="M15.70 0.01L15.70 0.01Q16.40 0.01 17.43 0.08Q18.46 0.15 19.56 0.27Q20.66 0.39 21.49 0.52Q22.31 0.64 22.63 0.78L22.63 0.78L22.21 5.50L21.86 5.50Q21.86 3.68 20.51 2.58Q19.16 1.48 16.92 1.48L16.92 1.48Q14.89 1.48 13.65 2.46Q12.41 3.44 12.34 4.84L12.34 4.84Q12.30 5.89 13 6.66Q13.70 7.43 14.79 8.09L14.79 8.09L21.47 12.43Q23.08 13.34 23.90 14.81Q24.73 16.28 24.62 18.24L24.62 18.24Q24.45 21.68 22.00 23.58Q19.55 25.49 15.35 25.49L15.35 25.49Q13.80 25.49 12.35 25.23Q10.90 24.96 9.78 24.49Q8.66 24.02 8.00 23.36L8.00 23.36Q7.71 22.59 7.75 21.50Q7.79 20.41 8.08 19.29Q8.38 18.17 8.84 17.44L8.84 17.44L9.15 17.44Q9.01 19.23 9.80 20.75Q10.59 22.27 12.11 23.16Q13.63 24.05 15.73 24.02L15.73 24.02Q18.04 23.98 19.30 22.85Q20.56 21.71 20.56 20.10L20.56 20.10Q20.56 19.02 19.91 18.14Q19.27 17.27 17.80 16.46L17.80 16.46L11.67 12.40Q9.82 11.35 8.97 9.70Q8.13 8.06 8.35 6.13L8.35 6.13Q8.48 4.31 9.39 2.93Q10.30 1.55 11.90 0.78Q13.49 0.01 15.70 0.01ZM18.46 0.36L22.66 0.36L22.59 1.09L18.46 1.09L18.46 0.36ZM29.14 4.00L34.18 4.00L34.18 25L29.14 25L29.14 4.00ZM34.11 23.60L42.37 23.60L43.17 25L34.11 25L34.11 23.60ZM34.11 13.90L41.18 13.90L41.18 15.30L34.11 15.30L34.11 13.90ZM34.11 4.00L42.75 4.00L42.75 5.40L34.11 5.40L34.11 4.00ZM44.29 18.56L44.61 18.56L43.28 25L37.22 25L38.31 23.60Q39.81 23.60 40.98 22.99Q42.16 22.38 43.00 21.24Q43.84 20.10 44.29 18.56L44.29 18.56ZM38.17 15.23L41.18 15.23L41.18 18.31L40.83 18.31L40.83 18.04Q40.83 16.88 40.11 16.09Q39.39 15.30 38.17 15.30L38.17 15.30L38.17 15.23ZM40.83 10.89L41.18 10.89L41.18 13.97L38.17 13.97L38.17 13.90Q39.39 13.87 40.11 13.08Q40.83 12.29 40.83 11.14L40.83 11.14L40.83 10.89ZM39.22 5.33L42.75 5.33L42.75 9.04L42.40 9.04L42.40 8.72Q42.40 7.18 41.58 6.31Q40.76 5.43 39.22 5.40L39.22 5.40L39.22 5.33ZM42.75 3.47L42.75 3.47L42.75 4.31L39.08 4.00Q40.09 4.00 41.21 3.81Q42.33 3.61 42.75 3.47ZM29.14 22.80L29.24 22.80L29.38 25L26.79 25L26.79 24.65Q26.79 24.65 27 24.65Q27.21 24.65 27.25 24.65L27.25 24.65Q28.02 24.65 28.58 24.11Q29.14 23.57 29.14 22.80L29.14 22.80ZM29.38 4.00L29.24 6.20L29.14 6.20Q29.14 5.40 28.58 4.87Q28.02 4.35 27.25 4.35L27.25 4.35Q27.21 4.35 27 4.35Q26.79 4.35 26.79 4.35L26.79 4.35L26.79 4.00L29.38 4.00ZM53.92 9.46L55.98 3.05L66.34 24.82L60.43 24.82L53.92 9.46ZM46.88 22.69L49.40 22.69Q49.02 23.63 49.51 24.14Q50.00 24.65 50.59 24.65L50.59 24.65L50.87 24.65L50.87 25L43.87 25L43.87 24.65Q43.87 24.65 44.01 24.65Q44.15 24.65 44.15 24.65L44.15 24.65Q44.85 24.65 45.62 24.21Q46.39 23.77 46.88 22.69L46.88 22.69ZM55.70 3.05L55.98 3.05L56.05 7.25L48.46 24.89L45.87 24.89L54.06 7.29Q54.13 7.08 54.37 6.54Q54.62 5.99 54.90 5.31Q55.18 4.63 55.42 4.02Q55.67 3.40 55.70 3.05L55.70 3.05ZM50.10 18.14L59.03 18.14L59.03 19.50L50.10 19.50L50.10 18.14ZM59.55 22.69L59.55 22.69L65.33 22.69Q65.85 23.77 66.62 24.21Q67.39 24.65 68.09 24.65L68.09 24.65Q68.09 24.65 68.23 24.65Q68.37 24.65 68.37 24.65L68.37 24.65L68.37 25L58.08 25L58.08 24.65L58.36 24.65Q58.96 24.65 59.45 24.14Q59.94 23.63 59.55 22.69ZM84.12 0.50L84.12 0.50L88.63 0.50Q90.21 0.50 91.71 0.85Q93.22 1.20 94.39 1.97Q95.56 2.74 96.26 4.00Q96.97 5.26 96.97 7.11L96.97 7.11Q96.97 8.58 96.35 10.04Q95.74 11.49 94.48 12.52Q93.22 13.55 91.22 13.76L91.22 13.76Q92.34 14.11 93.27 15.02Q94.20 15.93 94.79 16.84L94.79 16.84Q94.83 16.91 95.20 17.48Q95.56 18.04 96.11 18.86Q96.65 19.68 97.24 20.52Q97.84 21.36 98.33 21.99L98.33 21.99Q99.10 22.93 99.73 23.51Q100.36 24.09 101.06 24.35Q101.76 24.61 102.67 24.65L102.67 24.65L102.67 25L99.24 25Q97.35 25 95.81 24.65Q94.27 24.30 93.08 23.51Q91.89 22.73 91.01 21.36L91.01 21.36Q90.73 20.94 90.40 20.29Q90.07 19.64 89.72 18.91Q89.37 18.17 89.04 17.49Q88.70 16.81 88.46 16.25Q88.21 15.69 88.11 15.37L88.11 15.37Q87.66 14.25 87.04 13.69Q86.43 13.13 85.73 13.03L85.73 13.03L85.73 12.68Q85.83 12.68 86.15 12.68Q86.46 12.68 86.81 12.68L86.81 12.68Q87.76 12.68 88.65 12.29Q89.54 11.91 90.24 11.03Q90.94 10.16 91.22 8.62L91.22 8.62Q91.29 8.30 91.35 7.88Q91.40 7.46 91.36 6.94L91.36 6.94Q91.26 4.42 90.10 3.25Q88.95 2.07 87.23 2.04L87.23 2.04Q86.74 2.00 86.17 2.02Q85.59 2.04 85.12 2.04Q84.64 2.04 84.47 2.04L84.47 2.04Q84.47 2.00 84.38 1.64Q84.29 1.27 84.21 0.88Q84.12 0.50 84.12 0.50ZM79.32 0.50L84.57 0.50L84.57 25L79.32 25L79.32 0.50ZM79.32 22.45L79.43 22.45L79.43 25L76.63 25L76.63 24.65Q76.66 24.65 76.86 24.65Q77.05 24.65 77.08 24.65L77.08 24.65Q77.99 24.65 78.64 24.00Q79.29 23.36 79.32 22.45L79.32 22.45ZM79.43 0.50L79.43 3.05L79.32 3.05Q79.29 2.14 78.64 1.50Q77.99 0.85 77.08 0.85L77.08 0.85Q77.05 0.85 76.86 0.85Q76.66 0.85 76.63 0.85L76.63 0.85L76.63 0.50L79.43 0.50ZM84.47 25L84.47 22.45L84.57 22.45Q84.57 23.36 85.24 24.00Q85.91 24.65 86.81 24.65L86.81 24.65Q86.88 24.65 87.06 24.65Q87.23 24.65 87.23 24.65L87.23 24.65L87.23 25L84.47 25ZM103.79 4.00L108.83 4.00L108.83 25L103.79 25L103.79 4.00ZM108.76 23.60L117.02 23.60L117.82 25L108.76 25L108.76 23.60ZM108.76 13.90L115.83 13.90L115.83 15.30L108.76 15.30L108.76 13.90ZM108.76 4.00L117.40 4.00L117.40 5.40L108.76 5.40L108.76 4.00ZM118.94 18.56L119.26 18.56L117.93 25L111.87 25L112.96 23.60Q114.46 23.60 115.64 22.99Q116.81 22.38 117.65 21.24Q118.49 20.10 118.94 18.56L118.94 18.56ZM112.82 15.23L115.83 15.23L115.83 18.31L115.48 18.31L115.48 18.04Q115.48 16.88 114.76 16.09Q114.04 15.30 112.82 15.30L112.82 15.30L112.82 15.23ZM115.48 10.89L115.83 10.89L115.83 13.97L112.82 13.97L112.82 13.90Q114.04 13.87 114.76 13.08Q115.48 12.29 115.48 11.14L115.48 11.14L115.48 10.89ZM113.87 5.33L117.40 5.33L117.40 9.04L117.05 9.04L117.05 8.72Q117.05 7.18 116.23 6.31Q115.41 5.43 113.87 5.40L113.87 5.40L113.87 5.33ZM117.40 3.47L117.40 3.47L117.40 4.31L113.73 4.00Q114.74 4.00 115.86 3.81Q116.98 3.61 117.40 3.47ZM103.79 22.80L103.89 22.80L104.03 25L101.44 25L101.44 24.65Q101.44 24.65 101.65 24.65Q101.86 24.65 101.90 24.65L101.90 24.65Q102.67 24.65 103.23 24.11Q103.79 23.57 103.79 22.80L103.79 22.80ZM104.03 4.00L103.89 6.20L103.79 6.20Q103.79 5.40 103.23 4.87Q102.67 4.35 101.90 4.35L101.90 4.35Q101.86 4.35 101.65 4.35Q101.44 4.35 101.44 4.35L101.44 4.35L101.44 4.00L104.03 4.00ZM141.80 16.21L142.08 16.21L142.46 21.50Q141.80 22.62 140.61 23.51Q139.42 24.41 137.70 24.93Q135.99 25.45 133.71 25.45L133.71 25.45Q129.79 25.42 126.96 24.13Q124.12 22.83 122.60 20.40Q121.08 17.96 121.08 14.46L121.08 14.46Q121.08 11.03 122.58 8.60Q124.09 6.17 126.92 4.86Q129.76 3.54 133.71 3.54L133.71 3.54Q136.09 3.54 138.14 4.00Q140.19 4.45 141.55 5.15L141.55 5.15L141.59 10.72L141.31 10.72Q140.43 7.50 138.54 6.20Q136.65 4.91 134.03 4.91L134.03 4.91Q131.51 4.91 129.81 6.10Q128.11 7.29 127.26 9.42Q126.40 11.56 126.40 14.43L126.40 14.43Q126.40 17.34 127.26 19.47Q128.11 21.61 129.76 22.80Q131.40 23.98 133.71 24.05L133.71 24.05Q136.20 24.05 137.83 23.29Q139.45 22.52 140.42 20.80Q141.38 19.09 141.80 16.21L141.80 16.21ZM146.91 4.00L151.95 4.00L151.95 25L146.91 25L146.91 4.00ZM146.91 22.80L147.01 22.80L147.01 25L144.46 25L144.46 24.65Q144.46 24.65 144.67 24.65Q144.88 24.65 144.91 24.65L144.91 24.65Q145.72 24.65 146.31 24.11Q146.91 23.57 146.91 22.80L146.91 22.80ZM151.88 25L151.88 22.80L151.95 22.80Q151.98 23.57 152.56 24.11Q153.14 24.65 153.98 24.65L153.98 24.65Q153.98 24.65 154.17 24.65Q154.36 24.65 154.40 24.65L154.40 24.65L154.40 25L151.88 25ZM151.95 6.20L151.88 6.20L151.88 4.00L154.40 4.00L154.36 4.35Q154.36 4.35 154.19 4.35Q154.01 4.35 153.98 4.35L153.98 4.35Q153.14 4.35 152.56 4.87Q151.98 5.40 151.95 6.20L151.95 6.20ZM147.01 4.00L147.01 6.20L146.91 6.20Q146.91 5.40 146.31 4.87Q145.72 4.35 144.88 4.35L144.88 4.35Q144.88 4.35 144.67 4.35Q144.46 4.35 144.46 4.35L144.46 4.35L144.46 4.00L147.01 4.00ZM163.04 4.00L163.04 4.00L166.40 4.00Q169.24 4.00 170.99 4.77Q172.74 5.54 173.61 6.85Q174.49 8.16 174.56 9.81L174.56 9.81Q174.63 11.87 173.74 13.41Q172.84 14.95 171.34 15.76Q169.83 16.56 168.05 16.48Q166.26 16.39 164.51 15.23L164.51 15.23L164.51 14.92Q164.51 14.92 164.88 14.92Q165.25 14.92 165.81 14.80Q166.37 14.67 166.98 14.32Q167.59 13.97 168.15 13.27Q168.71 12.57 169.03 11.38L169.03 11.38Q169.13 10.96 169.19 10.46Q169.24 9.95 169.20 9.56L169.20 9.56Q169.17 7.64 168.07 6.50Q166.96 5.36 165.00 5.36L165.00 5.36L163.36 5.36Q163.36 5.36 163.29 5.03Q163.22 4.70 163.13 4.35Q163.04 4.00 163.04 4.00ZM158.39 4.00L163.43 4.00L163.43 25L158.39 25L158.39 4.00ZM158.39 22.80L158.49 22.80L158.60 25L156.08 25L156.08 24.65Q156.11 24.65 156.29 24.65Q156.46 24.65 156.50 24.65L156.50 24.65Q157.27 24.65 157.83 24.11Q158.39 23.57 158.39 22.80L158.39 22.80ZM158.60 4.00L158.46 6.17L158.39 6.17Q158.39 5.36 157.83 4.86Q157.27 4.35 156.50 4.35L156.50 4.35Q156.43 4.35 156.27 4.35Q156.11 4.35 156.04 4.35L156.04 4.35L156.04 4.00L158.60 4.00ZM163.18 25L163.36 22.80L163.43 22.80Q163.46 23.57 163.99 24.11Q164.51 24.65 165.32 24.65L165.32 24.65Q165.39 24.65 165.55 24.65Q165.70 24.65 165.74 24.65L165.74 24.65L165.74 25L163.18 25ZM178.37 4.00L183.41 4.00L183.41 25L178.37 25L178.37 4.00ZM183.34 23.60L191.60 23.60L192.41 25L183.34 25L183.34 23.60ZM183.34 13.90L190.41 13.90L190.41 15.30L183.34 15.30L183.34 13.90ZM183.34 4.00L191.99 4.00L191.99 5.40L183.34 5.40L183.34 4.00ZM193.53 18.56L193.84 18.56L192.51 25L186.46 25L187.54 23.60Q189.05 23.60 190.22 22.99Q191.39 22.38 192.23 21.24Q193.07 20.10 193.53 18.56L193.53 18.56ZM187.40 15.23L190.41 15.23L190.41 18.31L190.06 18.31L190.06 18.04Q190.06 16.88 189.35 16.09Q188.63 15.30 187.40 15.30L187.40 15.30L187.40 15.23ZM190.06 10.89L190.41 10.89L190.41 13.97L187.40 13.97L187.40 13.90Q188.63 13.87 189.35 13.08Q190.06 12.29 190.06 11.14L190.06 11.14L190.06 10.89ZM188.45 5.33L191.99 5.33L191.99 9.04L191.64 9.04L191.64 8.72Q191.64 7.18 190.82 6.31Q189.99 5.43 188.45 5.40L188.45 5.40L188.45 5.33ZM191.99 3.47L191.99 3.47L191.99 4.31L188.31 4.00Q189.33 4.00 190.45 3.81Q191.57 3.61 191.99 3.47ZM178.37 22.80L178.48 22.80L178.62 25L176.03 25L176.03 24.65Q176.03 24.65 176.24 24.65Q176.45 24.65 176.48 24.65L176.48 24.65Q177.25 24.65 177.81 24.11Q178.37 23.57 178.37 22.80L178.37 22.80ZM178.62 4.00L178.48 6.20L178.37 6.20Q178.37 5.40 177.81 4.87Q177.25 4.35 176.48 4.35L176.48 4.35Q176.45 4.35 176.24 4.35Q176.03 4.35 176.03 4.35L176.03 4.35L176.03 4.00L178.62 4.00ZM202.38 3.54L202.38 3.54Q203.08 3.54 204.08 3.61Q205.08 3.68 206.06 3.77Q207.04 3.86 207.79 3.98Q208.54 4.10 208.82 4.21L208.82 4.21L208.37 8.48L208.05 8.48Q208.05 6.87 206.93 5.92Q205.81 4.98 203.71 4.98L203.71 4.98Q202.03 4.98 201.00 5.71Q199.97 6.45 199.90 7.67L199.90 7.67Q199.83 8.30 200.13 8.81Q200.42 9.32 200.97 9.70Q201.51 10.09 202.17 10.47L202.17 10.47L207.67 13.87Q209.07 14.57 209.87 15.90Q210.68 17.23 210.57 19.12L210.57 19.12Q210.47 21.08 209.44 22.52Q208.40 23.95 206.60 24.70Q204.80 25.45 202.35 25.45L202.35 25.45Q200.84 25.45 199.55 25.21Q198.25 24.96 197.33 24.55Q196.40 24.13 195.91 23.60L195.91 23.60Q195.63 22.90 195.66 21.90Q195.70 20.91 195.98 19.91Q196.26 18.91 196.68 18.24L196.68 18.24L196.96 18.24Q196.85 19.82 197.52 21.15Q198.18 22.48 199.53 23.27Q200.88 24.05 202.73 24.05L202.73 24.05Q204.76 24.05 205.78 23.11Q206.79 22.16 206.79 20.87L206.79 20.87Q206.79 19.96 206.18 19.21Q205.57 18.45 204.17 17.72L204.17 17.72L199.20 14.57Q197.45 13.66 196.66 12.15Q195.87 10.65 196.08 8.86L196.08 8.86Q196.26 7.18 197.08 5.99Q197.90 4.80 199.27 4.17Q200.63 3.54 202.38 3.54ZM205.04 3.86L208.82 3.86L208.79 4.49L205.04 4.49L205.04 3.86Z"/></g>
        
      </svg>
    