<svg data-logo="logo" xmlns="http://www.w3.org/2000/svg" viewBox="0 0 202 43">
        <g style="opacity: 1;" id="logogram" transform="translate(0, 1) rotate(0)"><path d="M20.3018 10.27C20.3018 15.7928 15.8246 20.27 10.3018 20.27H0.301758V10.27C0.301758 4.74714 4.7789 0.269989 10.3018 0.269989C15.8246 0.269989 20.3018 4.74714 20.3018 10.27Z" fill="#17CF97"></path><path d="M20.3018 30.27C20.3018 24.7471 24.7789 20.27 30.3018 20.27H40.3018V30.27C40.3018 35.7928 35.8246 40.27 30.3018 40.27C24.7789 40.27 20.3018 35.7928 20.3018 30.27Z" fill="#17CF97"></path><path d="M0.301758 30.27C0.301758 35.7928 4.7789 40.27 10.3018 40.27H20.3018V30.27C20.3018 24.7471 15.8246 20.27 10.3018 20.27C4.7789 20.27 0.301758 24.7471 0.301758 30.27Z" fill="#17CF97"></path><path d="M40.3018 10.27C40.3018 4.74714 35.8246 0.269989 30.3018 0.269989H20.3018V10.27C20.3018 15.7928 24.7789 20.27 30.3018 20.27C35.8246 20.27 40.3018 15.7928 40.3018 10.27Z" fill="#17CF97"></path></g>
        <g style="opacity: 1;" id="logotype" transform="translate(47, 1.5)"><path fill="#ffff" d="M13.49 33L8.31 33L8.31 7.54L16.31 7.54L20.44 19.23Q20.70 20.05 21.03 21.34Q21.36 22.64 21.71 24.15Q22.05 25.65 22.35 27.07Q22.65 28.49 22.83 29.53L22.83 29.53L21.83 29.53Q22.01 28.51 22.31 27.10Q22.61 25.69 22.95 24.18Q23.29 22.68 23.63 21.36Q23.96 20.05 24.22 19.23L24.22 19.23L28.29 7.54L36.32 7.54L36.32 33L31.07 33L31.07 20.99Q31.07 20.17 31.10 18.92Q31.14 17.67 31.17 16.23Q31.21 14.78 31.24 13.32Q31.28 11.86 31.29 10.56L31.29 10.56L31.62 10.56Q31.29 11.98 30.90 13.49Q30.51 15.00 30.11 16.42Q29.70 17.84 29.34 19.03Q28.99 20.22 28.73 20.99L28.73 20.99L24.51 33L20.12 33L15.83 20.99Q15.57 20.22 15.21 19.05Q14.85 17.88 14.45 16.46Q14.05 15.04 13.64 13.53Q13.23 12.01 12.85 10.56L12.85 10.56L13.26 10.56Q13.28 11.79 13.31 13.24Q13.35 14.70 13.39 16.16Q13.43 17.62 13.46 18.88Q13.49 20.13 13.49 20.99L13.49 20.99L13.49 33ZM38.38 39.77L38.38 39.77L39.56 35.91L40.19 36.06Q41.22 36.33 42.02 36.21Q42.83 36.09 43.31 35.56Q43.80 35.03 43.90 34.08L43.90 34.08L44.04 33.05L36.86 13.89L42.31 13.89L45.53 23.81Q46.11 25.69 46.48 27.57Q46.84 29.45 47.32 31.50L47.32 31.50L46.12 31.50Q46.59 29.45 47.05 27.56Q47.51 25.67 48.12 23.81L48.12 23.81L51.47 13.89L56.86 13.89L48.74 35.26Q48.16 36.79 47.25 37.92Q46.35 39.05 45.00 39.67Q43.65 40.28 41.73 40.28L41.73 40.28Q40.71 40.28 39.82 40.14Q38.93 39.99 38.38 39.77ZM68.63 33L63.45 33L63.45 7.54L71.45 7.54L75.58 19.23Q75.84 20.05 76.17 21.34Q76.51 22.64 76.85 24.15Q77.19 25.65 77.49 27.07Q77.79 28.49 77.98 29.53L77.98 29.53L76.97 29.53Q77.16 28.51 77.46 27.10Q77.75 25.69 78.10 24.18Q78.44 22.68 78.77 21.36Q79.10 20.05 79.36 19.23L79.36 19.23L83.43 7.54L91.46 7.54L91.46 33L86.21 33L86.21 20.99Q86.21 20.17 86.25 18.92Q86.28 17.67 86.32 16.23Q86.35 14.78 86.38 13.32Q86.42 11.86 86.44 10.56L86.44 10.56L86.76 10.56Q86.44 11.98 86.04 13.49Q85.65 15.00 85.25 16.42Q84.85 17.84 84.49 19.03Q84.13 20.22 83.87 20.99L83.87 20.99L79.65 33L75.26 33L70.97 20.99Q70.71 20.22 70.35 19.05Q70.00 17.88 69.59 16.46Q69.19 15.04 68.78 13.53Q68.37 12.01 68.00 10.56L68.00 10.56L68.41 10.56Q68.42 11.79 68.46 13.24Q68.49 14.70 68.53 16.16Q68.58 17.62 68.60 18.88Q68.63 20.13 68.63 20.99L68.63 20.99L68.63 33ZM102.29 33.38L102.29 33.38Q99.37 33.38 97.25 32.18Q95.13 30.98 94.00 28.78Q92.86 26.57 92.86 23.55L92.86 23.55Q92.86 20.59 93.99 18.37Q95.12 16.15 97.18 14.90Q99.25 13.65 102.04 13.65L102.04 13.65Q103.92 13.65 105.54 14.25Q107.16 14.85 108.39 16.06Q109.62 17.26 110.32 19.07Q111.01 20.88 111.01 23.34L111.01 23.34L111.01 24.78L94.96 24.78L94.96 21.57L108.50 21.57L106.10 22.42Q106.10 20.93 105.65 19.83Q105.20 18.73 104.30 18.12Q103.40 17.52 102.07 17.52L102.07 17.52Q100.75 17.52 99.82 18.13Q98.89 18.75 98.41 19.80Q97.94 20.85 97.94 22.20L97.94 22.20L97.94 24.47Q97.94 26.13 98.49 27.26Q99.05 28.39 100.05 28.95Q101.05 29.51 102.38 29.51L102.38 29.51Q103.28 29.51 104.02 29.26Q104.75 29.00 105.28 28.50Q105.80 27.99 106.07 27.26L106.07 27.26L110.72 28.13Q110.26 29.70 109.11 30.89Q107.97 32.08 106.25 32.73Q104.53 33.38 102.29 33.38ZM117.57 33.38L117.57 33.38Q115.76 33.38 114.31 32.74Q112.87 32.09 112.04 30.82Q111.21 29.55 111.21 27.65L111.21 27.65Q111.21 26.06 111.80 24.98Q112.39 23.91 113.41 23.26Q114.42 22.61 115.72 22.27Q117.01 21.93 118.42 21.79L118.42 21.79Q120.08 21.62 121.10 21.47Q122.12 21.33 122.59 21.01Q123.06 20.70 123.06 20.08L123.06 20.08L123.06 19.99Q123.06 19.17 122.71 18.61Q122.37 18.05 121.71 17.75Q121.04 17.45 120.06 17.45L120.06 17.45Q119.07 17.45 118.34 17.75Q117.60 18.05 117.14 18.54Q116.68 19.04 116.46 19.65L116.46 19.65L111.76 18.87Q112.25 17.21 113.40 16.05Q114.54 14.88 116.24 14.27Q117.95 13.65 120.06 13.65L120.06 13.65Q121.62 13.65 123.07 14.02Q124.52 14.39 125.68 15.16Q126.83 15.93 127.51 17.16Q128.18 18.39 128.18 20.13L128.18 20.13L128.18 33L123.33 33L123.33 30.35L123.16 30.35Q122.70 31.24 121.93 31.91Q121.16 32.59 120.07 32.98Q118.99 33.38 117.57 33.38ZM119.02 29.77L119.02 29.77Q120.24 29.77 121.15 29.29Q122.06 28.81 122.58 27.99Q123.09 27.17 123.09 26.16L123.09 26.16L123.09 24.10Q122.87 24.27 122.41 24.40Q121.94 24.54 121.38 24.64Q120.82 24.75 120.27 24.83Q119.72 24.92 119.30 24.97L119.30 24.97Q118.36 25.10 117.64 25.41Q116.92 25.72 116.53 26.22Q116.13 26.73 116.13 27.51L116.13 27.51Q116.13 28.25 116.51 28.75Q116.89 29.26 117.53 29.51Q118.17 29.77 119.02 29.77ZM130.28 7.54L135.41 7.54L135.41 33L130.28 33L130.28 7.54ZM145.08 33.38L145.08 33.38Q142.77 33.38 141.00 32.72Q139.22 32.06 138.09 30.80Q136.96 29.55 136.64 27.77L136.64 27.77L141.41 26.95Q141.78 28.28 142.72 28.95Q143.66 29.62 145.23 29.62L145.23 29.62Q146.69 29.62 147.54 29.06Q148.40 28.51 148.40 27.65L148.40 27.65Q148.40 26.90 147.79 26.42Q147.18 25.94 145.93 25.69L145.93 25.69L142.64 25.00Q139.87 24.44 138.50 23.08Q137.13 21.72 137.13 19.58L137.13 19.58Q137.13 17.74 138.14 16.41Q139.15 15.09 140.94 14.37Q142.74 13.65 145.17 13.65L145.17 13.65Q147.42 13.65 149.08 14.28Q150.74 14.90 151.76 16.05Q152.79 17.19 153.13 18.75L153.13 18.75L148.58 19.55Q148.29 18.58 147.46 17.95Q146.64 17.33 145.23 17.33L145.23 17.33Q143.97 17.33 143.11 17.86Q142.26 18.39 142.26 19.26L142.26 19.26Q142.26 19.99 142.82 20.49Q143.37 20.99 144.72 21.26L144.72 21.26L148.16 21.94Q150.92 22.51 152.27 23.78Q153.62 25.05 153.62 27.10L153.62 27.10Q153.62 28.98 152.53 30.39Q151.44 31.80 149.51 32.59Q147.59 33.38 145.08 33.38Z"></path></g>
        
      </svg>